<svg xmlns="http://www.w3.org/2000/svg" viewBox="0 0 403.95 54.26"><title>11242-NN4IZ7</title><path fill="#c6aa28" class="cls-1" d="M260.43 8.24h137.6a2.86 2.86 0 0 1 2.75-1.55 3.19 3.19 0 0 1 0 6.37 2.81 2.81 0 0 1-2.72-1.55H255.12c-8.54-.13-15 .68-20.93 2.72l-.26.16c-.42.29-.84.58-1.23.87a14.16 14.16 0 0 0-1.26 1.1 16.29 16.29 0 0 1 5.69 5.89 17.47 17.47 0 0 1 1.1 2.52 14.84 14.84 0 0 1 .65 2.75 10.16 10.16 0 0 1-.68 5.92 6.46 6.46 0 0 1-.58 1 4.37 4.37 0 0 1-.58.78 4.24 4.24 0 0 1-.87.84 5.33 5.33 0 0 1-3.69 1.26 5.49 5.49 0 0 1-3.62-1.58 7 7 0 0 1-.65-.71c-2.07-2.72-2.46-6.92-1.88-10.61.13-.71.29-1.42.45-2.07s.42-1.26.65-1.84v-.06a15.23 15.23 0 0 1 1.42-2.56 18.53 18.53 0 0 0-17-2l.78.58a25 25 0 0 1 3.53 3.14 18.41 18.41 0 0 1 2.49 3.5 18 18 0 0 1 1.62 4.5 14.61 14.61 0 0 1-.42 7.73 12.76 12.76 0 0 1-.55 1.42c-.23.45-.45.87-.71 1.29a9.57 9.57 0 0 1-3.85 3.49 6.67 6.67 0 0 1-1 .42l-1 .29a8.94 8.94 0 0 1-1.84.23 15.88 15.88 0 0 1-1.26 6.44 8.19 8.19 0 0 1-15.3 0 15.36 15.36 0 0 1-1.29-6.44 8.38 8.38 0 0 1-1.81-.23c-4-1-6.75-4.5-7.59-8.41a15.93 15.93 0 0 1 1.17-9.77c1.48-3.29 3.85-5.37 6.52-7.67.23-.19.48-.39.74-.58a18.53 18.53 0 0 0-17 2 15.17 15.17 0 0 1 1.42 2.56v.06c2.1 4.11 2.05 10.76-.78 14.52a4.55 4.55 0 0 1-.65.71 5.43 5.43 0 0 1-3.62 1.58c-6.34.15-7.41-8.07-5.73-12.61a17.24 17.24 0 0 1 1.07-2.52 16.28 16.28 0 0 1 5.69-5.89 14 14 0 0 0-1.26-1.1c-2.79-2.19-6.55-2.79-10-3.14a122 122 0 0 0-12.44-.61H5.92a2.84 2.84 0 0 1-2.72 1.55 3.19 3.19 0 1 1 0-6.37 2.86 2.86 0 0 1 2.75 1.55h137.59a87.62 87.62 0 0 1 15.43 1.23c4.54.81 9.11 2.2 12.81 5a15.14 15.14 0 0 1 1.49 1.36 19.12 19.12 0 0 1 4.21-1.68 24.9 24.9 0 0 1 15.53 1.07c.71-.52 1.42-1 2.17-1.49.49-.32.71-.45.91-.58a44.75 44.75 0 0 0 5.18-3.75 13.36 13.36 0 0 1-2.62-3.56 4.05 4.05 0 0 1 .65-4.79 2.78 2.78 0 0 1 1.29-.81 3.77 3.77 0 0 1 4 .81 4.05 4.05 0 0 1 .65 4.79 13.33 13.33 0 0 1-2.62 3.56 45.11 45.11 0 0 0 5.21 3.75l.87.58c.74.49 1.49 1 2.2 1.49a25.07 25.07 0 0 1 9.45-1.84 24.22 24.22 0 0 1 3 .19 22.93 22.93 0 0 1 3 .58 18.84 18.84 0 0 1 4.17 1.68 12.46 12.46 0 0 1 1.52-1.36 13.06 13.06 0 0 1 1.29-.91c.45-.29.94-.58 1.42-.84a40.1 40.1 0 0 1 14.2-3.91 94.34 94.34 0 0 1 11.29-.61h.07zm-86.17 26.63a7.57 7.57 0 0 0 2.28-3.75 17 17 0 0 0-.05-7.57 12 12 0 0 1-.82-2.62 15.71 15.71 0 0 0-1.33-2.39 18.76 18.76 0 0 0-5.56 7.5 10.16 10.16 0 0 0-.29 7.63c1.43 3.17 3.91 2.84 5.77 1.2zm27.28.09l.45-1.16.42 1.16a12.07 12.07 0 0 0 2.17 3.75 8.47 8.47 0 0 0 4.33 2.65 24.76 24.76 0 0 0-1.59-11 27.13 27.13 0 0 0-4.69-7.12c-.23-.26-.45-.49-.68-.71-.23.23-.45.45-.68.71a28 28 0 0 0-4.69 7.12 25.22 25.22 0 0 0-1.59 11 8.69 8.69 0 0 0 4.37-2.65 11.27 11.27 0 0 0 2.14-3.75zm9.35 6.66a6.75 6.75 0 0 0 1.62-.19c5.73-1.75 5.43-7.54 5.11-11.1a17.81 17.81 0 0 0-4-9.7 43.42 43.42 0 0 0-3.85-3.85 26.14 26.14 0 0 0-3.17 1.81 30.62 30.62 0 0 0-2.78 2.2c-.39.32-.74.68-1.13 1 .23.26.48.48.68.74a29.28 29.28 0 0 1 7.37 16.3c0 .26.07.49.1.68.06.68.1 1.36.13 2zm-1.93-25.5c-1.65-1.46-3.43-3-5.24-4.66a19.08 19.08 0 0 1-1.75-1.42 19.18 19.18 0 0 1-1.75 1.42c-1.78 1.65-3.59 3.2-5.24 4.66a25.5 25.5 0 0 1 2.91 1.71 33.73 33.73 0 0 1 2.85 2.27c.42.35.81.74 1.2 1.1.39-.36.78-.75 1.2-1.1.91-.78 1.84-1.55 2.85-2.27a28.13 28.13 0 0 1 2.88-1.71zm-14.75.68a47.57 47.57 0 0 0-3.82 3.85c-4.17 5-7.6 18.16 1 20.8a7.21 7.21 0 0 0 1.65.19c0-.68.07-1.36.13-2a5.88 5.88 0 0 1 .07-.68 29.27 29.27 0 0 1 7.37-16.3c.23-.26.45-.49.68-.74-.36-.36-.74-.71-1.13-1a30.85 30.85 0 0 0-2.78-2.2c-.07 0 0 0 0 0a23.89 23.89 0 0 0-3.17-1.94zm7.76 11.48a2.09 2.09 0 0 0 0 4.17 2.09 2.09 0 0 0 0-4.17zm-6.83 14.07a13.06 13.06 0 0 0 .84 2.69 6.53 6.53 0 0 0 12 0 11.32 11.32 0 0 0 .84-2.69 9.32 9.32 0 0 1-4.88-3 11.37 11.37 0 0 1-1.33-1.81c-.19-.39-.42-.78-.61-1.2-.19.42-.39.81-.62 1.2a11.25 11.25 0 0 1-1.29 1.81 9.53 9.53 0 0 1-4.92 3zm34.4-7.23c2.2 2.14 4.72 1.26 6-1.49a9.86 9.86 0 0 0-.29-7.63 19 19 0 0 0-5.53-7.5 13.27 13.27 0 0 0-1.33 2.39c-.23.55-.42 1.13-.61 1.75a19.56 19.56 0 0 0-.42 2c-.55 3.46-.19 7.37 1.68 9.87a5.28 5.28 0 0 0 .58.61zM202.01 8.76a12.14 12.14 0 0 0 2.49-3.3 3.2 3.2 0 0 0-.48-3.75 2 2 0 0 0-.91-.58 3.1 3.1 0 0 0-3.11.58 3.14 3.14 0 0 0-.45 3.75 11.42 11.42 0 0 0 2.42 3.3z"/><path fill="#c6aa28" class="cls-1" d="M205.07 3.22l175.55 1.45-175.55 1.45v-2.9zM23.7 4.67l175.27-1.45v2.9L23.7 4.67z"/></svg>