<svg xmlns="http://www.w3.org/2000/svg" viewBox="0 0 416.276 416.276"><path fill="#c6aa28" d="M66.762 328.35a8.003 8.003 0 0 1-7.439 5.053 7.988 7.988 0 0 1-2.946-.565C25.763 320.697 7.184 305.11 2.65 287.762a8 8 0 0 1 15.48-4.045c3.147 12.044 18.825 24.207 44.145 34.247a8 8 0 0 1 4.487 10.386zm27.189-83.748a7.969 7.969 0 0 0 5.185 1.91 8 8 0 0 0 5.192-14.09 197.616 197.616 0 0 1-11.537-10.652c-35.156-35.156-53.571-79.845-47.989-115.471 15-2.351 31.599-.447 48.424 5.169a7.947 7.947 0 0 0 2.298.789c22.394 7.915 45.065 22.351 64.747 42.032a196.03 196.03 0 0 1 14.024 15.61 8 8 0 0 0 12.462-10.035 212.22 212.22 0 0 0-15.173-16.89c-20.221-20.221-43.537-35.366-66.99-44.313-.573-14.469 1.884-27.678 7.07-38.089 13.214 2.872 26.878 10.907 39.168 23.082a196.438 196.438 0 0 0-4.075 21.133 8 8 0 0 0 15.852 2.174c5.376-39.2 22.399-72.106 45.942-89.297 23.539 17.187 40.56 50.086 45.939 89.281a7.998 7.998 0 0 0 9.014 6.838 8.001 8.001 0 0 0 6.838-9.014 196.293 196.293 0 0 0-4.072-21.112c12.288-12.172 25.966-20.212 39.17-23.084 5.185 10.412 7.641 23.62 7.067 38.088-23.45 8.948-46.771 24.095-66.989 44.314a211.734 211.734 0 0 0-15.17 16.89 7.999 7.999 0 0 0 1.215 11.248 7.999 7.999 0 0 0 11.248-1.215 196.073 196.073 0 0 1 14.021-15.609c19.679-19.681 42.346-34.115 64.737-42.03a7.963 7.963 0 0 0 2.313-.795c16.819-5.612 33.422-7.517 48.418-5.166 5.582 35.627-12.833 80.316-47.988 115.473a195.662 195.662 0 0 1-11.536 10.646 8 8 0 0 0 10.369 12.185 211.924 211.924 0 0 0 12.481-11.52c40.635-40.635 60.773-93.78 51.307-135.392a7.998 7.998 0 0 0-6.026-6.026c-16.173-3.68-34.084-2.887-52.328 1.843-.174-17.621-4.367-33.657-12.15-46.006a8.006 8.006 0 0 0-7.686-3.682c-16.072 1.856-32.688 9.863-47.63 22.812-10.333-28.872-27.262-52.163-48.3-65.403a8.002 8.002 0 0 0-8.522 0c-21.039 13.241-37.967 36.531-48.3 65.4-14.94-12.949-31.54-20.95-47.628-22.809a8.008 8.008 0 0 0-7.685 3.681c-7.786 12.35-11.98 28.385-12.154 46.009-18.243-4.729-36.158-5.522-52.328-1.843a8 8 0 0 0-6.026 6.026c-9.467 41.61 10.673 94.755 51.308 135.391a214.293 214.293 0 0 0 12.473 11.519zm-3.79 62.562a8 8 0 0 0-4.911-10.192c-24.138-8.44-38.549-19.106-38.549-28.532 0-6.09 6.278-12.972 17.678-19.38a8 8 0 0 0 3.054-10.894 7.997 7.997 0 0 0-10.894-3.054c-17.145 9.637-25.838 20.85-25.838 33.327 0 17.276 17.037 32.365 49.268 43.636a8.001 8.001 0 0 0 10.192-4.911zm240.083-9.637a8 8 0 0 0-5.003 10.147 8.004 8.004 0 0 0 7.574 5.43c.854 0 1.721-.138 2.573-.427 33.374-11.334 51.015-26.632 51.015-44.238 0-12.028-8.098-22.898-24.067-32.309a8 8 0 0 0-10.954 2.831 8 8 0 0 0 2.831 10.954c10.44 6.151 16.19 12.73 16.19 18.523 0 9.531-15.389 20.677-40.159 29.089zM287.892 356c0 8.104-6.593 14.698-14.696 14.698a8 8 0 0 0 0 16c16.926 0 30.696-13.772 30.696-30.7a8 8 0 1 0-16 .002zm120.017-78.001c-4.271-1.113-8.646 1.442-9.763 5.718-3.147 12.045-18.824 24.207-44.145 34.247a8 8 0 0 0 5.898 14.874c30.615-12.14 49.193-27.727 53.727-45.075a8 8 0 0 0-5.717-9.764zm-142.158 3.475c0 4.355-3.543 7.898-7.897 7.898a8 8 0 0 0 0 16c13.177 0 23.897-10.722 23.897-23.9a8 8 0 1 0-16 .002zm-22.859-51.096h2.087a8 8 0 0 0 0-16h-2.087a8 8 0 0 0 0 16zm82.633 91.725c7.332 10.172 11.207 22.16 11.207 34.667 0 32.813-26.693 59.507-59.505 59.507h-137.35c-32.811 0-59.505-26.693-59.505-59.504 0-21.775 12.057-41.691 30.78-52.074a47.796 47.796 0 0 1-4.072-19.356c0-20.931 13.447-38.778 32.156-45.357a36.88 36.88 0 0 1-6.558-21.036c0-20.453 16.638-37.09 37.088-37.09h77.573c20.45 0 37.088 16.637 37.088 37.087 0 20.453-16.638 37.091-37.088 37.091h-77.573c-4.98 0-9.733-.986-14.076-2.774a7.767 7.767 0 0 1-.552.019c-17.677 0-32.059 14.382-32.059 32.061a31.89 31.89 0 0 0 5.459 17.879c.273.327.521.679.742 1.054 5.839 7.954 15.255 13.127 25.857 13.127h106.829c17.677 0 32.058-14.382 32.058-32.059 0-9.522-4.242-18.51-11.64-24.658-3.397-2.824-3.862-7.868-1.038-11.267s7.868-3.861 11.267-1.038c11.064 9.198 17.411 22.67 17.411 36.962 0 26.5-21.559 48.06-48.058 48.06H155.139c-13.852 0-26.353-5.891-35.131-15.298-14.334 7.413-23.635 22.326-23.635 38.667 0 23.991 19.516 43.507 43.505 43.507h137.351c23.988 0 43.505-19.516 43.505-43.504 0-9.131-2.831-17.884-8.188-25.314-2.583-3.584-1.771-8.584 1.813-11.168s8.58-1.776 11.166 1.809zM148.678 218.945c0 11.631 9.46 21.091 21.088 21.091h77.573c11.628 0 21.088-9.46 21.088-21.088 0-11.63-9.46-21.09-21.088-21.09h-77.573c-11.627.001-21.088 9.46-21.088 21.087z"/></svg>