<svg xmlns="http://www.w3.org/2000/svg" xmlns:xlink="http://www.w3.org/1999/xlink" width="13" height="80"><defs><path class="st0" d="M3 35.9c0 1 .5 1.6 1.4 1.6s1.4-.5 1.4-1.6V21.5h1.5v14.4c0 1 .5 1.6 1.4 1.6s1.4-.5 1.4-1.6V11.6h.7v9c0 .5.2.9.5 1.2.4.2.7.2 1.1 0 .4-.2.6-.6.6-1.2v-9.3c0-1-.3-1.9-1-2.6-.7-.7-1.5-1-2.7-1H3.8c-1.1 0-2 .3-2.6 1s-1 1.5-1 2.5v9.5c0 .5.2.8.6 1 .4.2.7.2 1.1 0 .4-.2.5-.5.5-1v-9.1H3v24.3zm.5-32.2c0 .9.3 1.6.9 2.2s1.3.9 2.1.9 1.5-.3 2.1-.9c.6-.6.8-1.4.8-2.2s-.2-1.6-.8-2.3C8 .8 7.3.5 6.5.5s-1.5.3-2.1.9-.9 1.4-.9 2.3z" id="a"/></defs><use xlink:href="#a" fill="#888"/><use y="40" xlink:href="#a" fill="#c6aa28"/></svg>