<svg xmlns="http://www.w3.org/2000/svg" viewBox="0 0 376.047 376.047"><path fill="#c6aa28" d="M185.309 253.852c2.93-.011 6.083-3.317 6.083-10.551 0-4.971 4.029-9 9-9s9 4.029 9 9c0 18.685-12.081 28.506-24.015 28.551h-.035a9 9 0 0 1-8.999-8.966 9 9 0 0 1 8.966-9.034zm116.951-60.565v112.345c0 38.827-31.588 70.415-70.415 70.415h-87.643c-38.827 0-70.415-31.588-70.415-70.415V193.287c0-23.366 3.66-39.2 11.52-49.83 7.514-10.162 17.355-13.679 26.038-16.781 15.868-5.669 29.572-10.565 29.572-63.548a9 9 0 0 1 9-9h3.11l-6.813-43.743A8.998 8.998 0 0 1 155.107 0h65.828a8.999 8.999 0 0 1 8.893 10.385l-6.81 43.743h3.111a9 9 0 0 1 9 9c0 52.98 13.703 57.876 29.57 63.545 8.684 3.103 18.526 6.619 26.04 16.781 7.861 10.63 11.521 26.465 11.521 49.833zM165.618 18l5.627 36.128h33.556L210.426 18h-44.808zM284.26 193.287c0-40.513-10.744-44.351-25.615-49.663-9.064-3.238-20.345-7.269-28.703-19.493-7.799-11.405-11.88-28.064-12.669-52.003H202.11v12.27a9 9 0 0 1-10.174 8.924v11.481c0 4.971-4.029 9-9 9s-9-4.029-9-9V72.128H163.68a7.753 7.753 0 0 1-.305 0h-4.601c-.789 23.939-4.87 40.599-12.669 52.004-8.358 12.226-19.64 16.256-28.704 19.495-14.87 5.313-25.614 9.151-25.614 49.66v112.345c0 28.901 23.514 52.415 52.415 52.415h87.643c28.901 0 52.415-23.514 52.415-52.415V193.287zm-44.238 50.975c0 38.983-26.159 59.381-52 59.381s-52-20.397-52-59.381c0-29.827 20.315-70.053 46.251-91.579a9 9 0 0 1 11.496 0c25.937 21.526 46.253 61.753 46.253 91.579zm-18 0c0-22.06-15.061-53.505-34.001-72.468-18.938 18.963-33.999 50.409-33.999 72.468 0 28.431 17.625 41.381 34 41.381s34-12.951 34-41.381z"/></svg>