<svg xmlns="http://www.w3.org/2000/svg" viewBox="0 0 302.188 302.188"><path fill="#c6aa28" d="M85.527 44.996a7.5 7.5 0 0 1-3.687-14.037c9.247-5.205 24.396-8.492 38.587-8.404a7.5 7.5 0 0 1-.052 15c-.2.002-.397-.002-.596-.002-13.101 0-25 3.336-30.58 6.477a7.449 7.449 0 0 1-3.672.966zM58.276 124.272a7.502 7.502 0 0 1-6.397-11.405c9.892-16.234 41.576-23.264 68.561-23.035a7.5 7.5 0 0 1-.063 15h-.066c-28.6-.256-50.76 7.859-55.623 15.84a7.499 7.499 0 0 1-6.412 3.6zM35.932 226.709a7.469 7.469 0 0 1-3.728-.998 7.5 7.5 0 0 1-2.77-10.238c12.879-22.432 54.959-32.107 91.009-31.811a7.499 7.499 0 0 1 7.431 7.568 7.502 7.502 0 0 1-7.498 7.432h-.07c-36.26-.381-69.726 10.105-77.864 24.279a7.492 7.492 0 0 1-6.51 3.768z"/><path fill="#c6aa28" d="M296.668 229.867c-3.484-3.527-8.843-6.803-15.097-9.357 6.361-7.932 10.917-17.355 8.805-25.438-1.209-4.617-4.364-8.211-8.492-10.027a16.235 16.235 0 0 0-.787-1.572c-2.722-4.783-7.821-7.637-13.642-7.637-1.7 0-3.48.24-5.292.713-4.821 1.262-10.365 4.285-15.727 8.455-2.482-6.32-5.705-11.75-9.206-15.293-4.628-4.688-9.301-5.672-12.405-5.672a15.14 15.14 0 0 0-3.817.492c-1.883.494-3.586 1.287-5.075 2.352-1.813-.199-3.701-.057-5.592.438-2.331.611-5.957 2.188-8.738 6.178-8.508-4.158-18.063-7.629-28.367-10.303 26.023-9.322 42.901-25.471 42.901-44.188 0-20.402-20.056-37.752-50.146-46.539 1.21-.541 2.4-1.1 3.55-1.688 14.852-7.606 23.031-18.295 23.031-30.102 0-11.807-8.18-22.498-23.031-30.104C156.283 3.786 138.822.048 120.374.048S84.465 3.786 71.207 10.575C56.355 18.182 48.176 28.873 48.176 40.68c0 11.807 8.179 22.496 23.031 30.102a74.434 74.434 0 0 0 3.546 1.689c-30.088 8.787-50.142 26.135-50.142 46.537 0 18.686 16.831 34.805 42.778 44.137C27.157 173.6 0 195.764 0 222.006c0 36.619 52.875 65.303 120.374 65.303 21.379 0 42.171-2.971 60.429-8.607a14.92 14.92 0 0 0 3.795 2.43c.231.533.495 1.059.789 1.574 2.723 4.783 7.821 7.637 13.639 7.637 1.701 0 3.483-.24 5.296-.715 4.822-1.26 10.365-4.283 15.725-8.451 2.482 6.32 5.706 11.75 9.209 15.295 4.628 4.685 9.3 5.668 12.403 5.668a15.09 15.09 0 0 0 3.813-.49c1.885-.494 3.589-1.287 5.08-2.354 1.811.199 3.709.055 5.585-.436 3.296-.861 9.186-3.623 11.608-12.455 1.319-4.807 1.473-11.123.542-17.852 3.05.459 6.041.697 8.865.697h.002c3.38 0 6.402-.342 8.982-1.018 9.623-2.516 13.085-9.811 13.126-15.313a16.331 16.331 0 0 0-.084-1.75 14.86 14.86 0 0 0 2.469-5.027c.902-3.284 1.454-9.769-4.979-16.275zM63.176 40.68c0-12.123 23.49-25.631 57.198-25.631s57.198 13.508 57.198 25.631c0 12.123-23.49 25.631-57.198 25.631S63.176 52.803 63.176 40.68zm-1.795 103.611c-13.835-7.084-21.77-16.301-21.77-25.283 0-8.984 7.935-18.199 21.77-25.283 15.633-8.006 36.583-12.414 58.993-12.414 22.41 0 43.36 4.408 58.993 12.414 13.835 7.084 21.77 16.299 21.77 25.283 0 8.982-7.935 18.199-21.77 25.283-15.633 8.006-36.584 12.414-58.993 12.414s-43.36-4.408-58.993-12.414zM15 222.006c0-27.266 48.255-50.301 105.374-50.301 29.307 0 57.126 5.996 77.247 16.549-.067 2.945.124 6.107.575 9.371-3.052-.457-6.044-.697-8.868-.697-3.383 0-6.405.344-8.984 1.018-9.632 2.52-13.09 9.82-13.123 15.313-.003.592.025 1.178.084 1.752-2.711 3.605-3.703 8.283-2.495 12.902 2.112 8.074 10.695 14.061 20.117 17.861-3.883 4.9-8.293 11.824-9.17 18.781-16.685 5.076-35.725 7.754-55.383 7.754C63.255 272.309 15 249.274 15 222.006zm268.469 24.895c-.472 1.947-.228 4.014.784 5.742 0 .002.011.057.014.104-.023.17-.612.633-1.923.975-.923.242-2.571.529-5.189.529h-.001c-4.972 0-10.973-1.063-16.465-2.914a7.5 7.5 0 1 0-9.531 9.418c3.002 9.273 3.205 17.738 2.122 21.682-.4 1.461-.874 1.895-.936 1.91-.042.012-2.456-1.641-5.94-.795-3.665.891-4.688 3.574-4.727 3.586-.008.002-.016.002-.019.002-.113 0-.74-.205-1.733-1.211-2.873-2.906-6.841-10.389-8.764-19.947a7.498 7.498 0 0 0-12.92-3.543c-6.528 7.234-13.729 11.766-17.714 12.678-1.581.363-2.192-.008-2.189-.043a7.543 7.543 0 0 0-2.131-5.371c-2.354-2.441-5.574-2.34-5.588-2.393-.457-1.744 2.03-7.723 7.885-14.402a58.473 58.473 0 0 1 5.141-5.17 7.502 7.502 0 0 0-3.443-12.953c-20.102-4.148-20.898-10.773-20.907-10.771.021-.02 2.769-1.285 3.72-4.73.533-1.932.23-4.016-.783-5.746 0 0-.011-.055-.014-.105.025-.17 6.808-5.293 23.579 1.412 2.63 1.053 5.65.221 7.666-1.771a7.5 7.5 0 0 0 1.864-7.645c-3.002-9.275-3.205-17.74-2.124-21.68.375-1.367.841-1.889.933-1.914a.903.903 0 0 1 .109-.023l.005.002c1.738 1.063 3.857 1.328 5.828.816a7.603 7.603 0 0 0 4.629-3.555c.03-.01.069-.021.119-.033.113 0 .739.205 1.732 1.211 2.873 2.908 6.841 10.391 8.764 19.947a7.498 7.498 0 0 0 5.368 5.752 7.492 7.492 0 0 0 7.553-2.207c6.531-7.238 13.859-11.328 17.716-12.682 1.275-.447 2.191.012 2.188.045a7.507 7.507 0 0 0 2.132 5.375c1.4 1.434 5.518 2.271 5.534 2.271.016.021 3.025 5.676-12.969 19.676a7.497 7.497 0 1 0 3.354 12.986c9.515 2.041 16.933 6.094 19.802 8.998.992 1.004 1.21 1.664 1.189 1.748-.004.004-2.876 1.254-3.72 4.739z"/><path fill="#c6aa28" d="M233.246 256.508c-2.326 0-4.641-.348-6.879-1.035-12.343-3.791-19.3-16.916-15.511-29.258 3.039-9.896 12.033-16.547 22.381-16.547 2.326 0 4.641.35 6.878 1.035 12.343 3.793 19.3 16.918 15.51 29.26-3.04 9.897-12.034 16.545-22.379 16.545zm-.009-31.84a8.372 8.372 0 0 0-8.041 5.949c-1.362 4.438 1.139 9.154 5.574 10.518a8.445 8.445 0 0 0 2.475.373 8.373 8.373 0 0 0 8.04-5.949c1.361-4.436-1.139-9.152-5.574-10.516a8.44 8.44 0 0 0-2.474-.375z"/></svg>