<svg xmlns="http://www.w3.org/2000/svg" width="283.032" height="283.033" viewBox="0 0 283.032 283.033"><g fill="#c6aa28"><path d="M49.117 26.626c-22.04 0-39.971 17.931-39.971 39.967 0 22.042 17.931 39.974 39.971 39.974 22.041 0 39.972-17.931 39.972-39.974 0-22.035-17.931-39.967-39.972-39.967zm0 65.608c-14.136 0-25.634-11.497-25.634-25.634 0-14.132 11.498-25.632 25.634-25.632 14.137 0 25.634 11.5 25.634 25.632 0 14.129-11.497 25.634-25.634 25.634zM77.194 199.664c2.399.504 4.789 1.021 7.169 1.563v-54.53c0-17.128-13.936-31.064-31.064-31.064h-8.364c-17.128 0-31.064 13.936-31.064 31.064v55.179c2.343-.98 4.742-1.802 7.168-2.539a77.95 77.95 0 0 1 7.169-1.806v-50.834c0-9.225 7.502-16.727 16.727-16.727h8.364c9.224 0 16.727 7.502 16.727 16.727v51.562c2.399.434 4.788.9 7.168 1.405zM235.5 26.626c-22.038 0-39.969 17.931-39.969 39.967 0 22.042 17.931 39.974 39.969 39.974 22.042 0 39.973-17.931 39.973-39.974 0-22.035-17.931-39.967-39.973-39.967zm0 65.608c-14.137 0-25.632-11.497-25.632-25.634 0-14.132 11.495-25.632 25.632-25.632 14.136 0 25.636 11.5 25.636 25.632 0 14.129-11.5 25.634-25.636 25.634zM263.577 200.792a87.503 87.503 0 0 1 7.168 3.421v-57.517c0-17.128-13.936-31.064-31.063-31.064h-8.363c-17.129 0-31.064 13.936-31.064 31.064v50.628c2.395-.471 4.783-.896 7.169-1.283 2.39-.392 4.778-.732 7.168-1.018v-48.327c0-9.225 7.505-16.727 16.728-16.727h8.363c9.227 0 16.727 7.502 16.727 16.727v51.464a82.47 82.47 0 0 1 7.167 2.632zM281.022 222.583c-7.851-6.539-15.663-10.982-23.48-13.964h-.005c-.378-.146-.751-.313-1.129-.453-8.933-3.239-17.88-4.55-26.901-4.55-4.942 0-9.917.466-14.916 1.105-2.385.309-4.77.616-7.168 1.027-2.381.41-4.771.858-7.169 1.344-17.777 3.621-36.104 9.059-55.478 11.351a89.75 89.75 0 0 1-10.597.606c-20.54 0-40.832-6.375-60.817-10.431h-.012c-1.113-.225-2.221-.43-3.33-.64-8.187-1.55-16.321-2.642-24.402-2.642-5.836 0-11.642.598-17.416 1.946a65.14 65.14 0 0 0-4.921 1.335h-.007c-6.947 2.188-13.85 5.581-20.708 10.646-4.702 3.468-2.268 10.305 1.914 11.266a78.07 78.07 0 0 1 11.173-5.418c10.905-6.053 22.442-8.289 34.329-8.289 28.931 0 59.862 12.849 88.403 13.819a84.23 84.23 0 0 0 3.053.056c31.026 0 59.711-15.695 88.101-15.695 11.48 0 22.91 2.646 34.429 9.853 4.756 2.025 9.367 4.513 13.861 7.463 4.28-.951 7.431-6.201 3.193-9.735z"/><path d="M281.022 246.479a95.785 95.785 0 0 0-5.928-4.532c-5.227-3.715-10.444-6.524-15.672-8.681-9.937-4.111-19.872-5.759-29.916-5.759-26.934 0-54.577 11.257-84.73 14.832a89.75 89.75 0 0 1-10.597.606c-30.112 0-59.685-13.712-88.556-13.712-8.692 0-17.319 1.283-25.879 4.518-4.259 1.605-8.496 3.71-12.723 6.394-1.486.948-2.968 1.919-4.447 3.016-5.062 3.729-1.888 11.457 2.87 11.457 1.003 0 2.079-.345 3.16-1.144 12.923-9.529 26.906-12.755 41.383-12.755 28.931 0 59.862 12.849 88.404 13.819 1.018.037 2.04.057 3.052.057 31.027 0 59.71-15.696 88.101-15.696 14.332 0 28.585 3.995 43.03 16.032 1.251 1.035 2.618 1.475 3.934 1.475 4.902.004 9.181-6.039 4.514-9.927zM117.014 142.202c-.254 1.307-.616 2.553-.894 3.752-.492 2.417-1.271 4.536-1.96 6.394-.593 1.904-1.438 3.389-1.983 4.682-.576 1.292-1.078 1.979-1.381 2.599-.425.7-.649 1.074-.649 1.074l-.138.224a7.188 7.188 0 1 0 12.725 6.637s.191-.43.556-1.232c.359-.938 1.071-2.436 1.591-4.121.502-1.693 1.286-3.72 1.739-6.108.555-2.371 1.157-5.036 1.407-8.005.156-1.479.385-3.001.485-4.592v-4.942c.177-3.379-.481-6.91-.964-10.529l-.388-2.728-.77-2.691-1.605-5.428c-1.036-3.743-2.553-6.812-3.817-10.282-1.316-3.37-2.63-6.732-3.92-10.05-1.127-3.307-2.509-6.555-3.375-9.743-.476-1.596-.945-3.169-1.405-4.704-.324-1.557-.644-3.087-.959-4.574-.766-2.978-.789-5.848-1.081-8.51-.296-2.667.077-5.113.065-7.302-.028-2.205.432-4.067.637-5.635.488-3.129.77-4.921.77-4.921s-.497 1.743-1.372 4.793c-.401 1.538-1.094 3.375-1.349 5.591-.266 2.203-.949 4.688-.994 7.451-.042 2.751-.378 5.792.019 8.949l.413 4.896c.275 1.643.553 3.32.84 5.031.497 3.465 1.468 6.844 2.212 10.405l2.667 10.513c.793 3.465 2.021 7.131 2.453 10.371.271 1.64.539 3.269.803 4.881l.387 2.378.023 2.385c.009 3.146.243 6.146-.296 8.981-.168 1.408-.328 2.78-.492 4.11zM142.889 142.202c-.255 1.307-.616 2.553-.894 3.752-.492 2.417-1.272 4.536-1.96 6.394-.592 1.904-1.437 3.389-1.983 4.682-.579 1.292-1.08 1.979-1.381 2.599-.425.7-.649 1.074-.649 1.074l-.14.224c-.143.243-.271.49-.385.747a7.186 7.186 0 0 0 3.612 9.502 7.187 7.187 0 0 0 9.5-3.612s.191-.43.556-1.232c.354-.938 1.069-2.436 1.592-4.121.499-1.693 1.283-3.72 1.736-6.108.56-2.371 1.157-5.036 1.404-8.005.159-1.479.388-3.001.49-4.592v-4.942c.178-3.379-.485-6.91-.966-10.529l-.388-2.728-.771-2.691c-.527-1.792-1.063-3.603-1.605-5.428-1.035-3.743-2.55-6.816-3.814-10.282-1.316-3.37-2.63-6.732-3.921-10.05-1.127-3.307-2.508-6.555-3.374-9.743-.479-1.596-.945-3.169-1.405-4.704-.325-1.557-.644-3.087-.961-4.574-.763-2.978-.787-5.848-1.078-8.51-.296-2.667.075-5.113.065-7.302-.028-2.205.432-4.067.637-5.635.493-3.129.768-4.921.768-4.921s-.497 1.743-1.37 4.793c-.401 1.538-1.094 3.375-1.349 5.591-.268 2.203-.95 4.688-.994 7.451-.042 2.751-.378 5.792.019 8.949.135 1.591.272 3.228.41 4.896.278 1.643.561 3.32.843 5.031.497 3.465 1.468 6.844 2.212 10.405l2.667 10.513c.793 3.465 2.021 7.131 2.445 10.371.273 1.64.542 3.269.805 4.881l.385 2.378.025 2.385c.009 3.146.243 6.146-.296 8.981a920.9 920.9 0 0 1-.487 4.11zM168.135 142.202c-.252 1.307-.616 2.553-.896 3.752-.49 2.417-1.27 4.536-1.956 6.394-.593 1.904-1.441 3.389-1.983 4.682-.579 1.292-1.083 1.979-1.382 2.599-.424.7-.653 1.074-.653 1.074l-.135.224c-.145.243-.275.49-.388.747-1.624 3.621-.009 7.878 3.612 9.502 3.622 1.624 7.878.01 9.502-3.612 0 0 .191-.43.551-1.232.359-.938 1.073-2.436 1.592-4.121.504-1.693 1.288-3.72 1.741-6.108.56-2.371 1.157-5.036 1.404-8.005.158-1.479.388-3.001.49-4.592v-4.942c.178-3.379-.485-6.91-.966-10.529l-.388-2.728-.771-2.691c-.531-1.792-1.063-3.603-1.605-5.428-1.036-3.743-2.553-6.816-3.817-10.282-1.316-3.37-2.627-6.732-3.92-10.05-1.13-3.307-2.507-6.555-3.375-9.743-.476-1.596-.947-3.169-1.404-4.704-.327-1.557-.645-3.087-.962-4.574-.765-2.978-.788-5.848-1.078-8.51-.298-2.667.075-5.113.065-7.302-.027-2.205.43-4.067.635-5.635.495-3.129.771-4.921.771-4.921s-.495 1.743-1.372 4.793c-.401 1.538-1.092 3.375-1.345 5.591-.271 2.203-.952 4.688-.993 7.451-.047 2.751-.379 5.792.018 8.949.131 1.591.271 3.228.411 4.896.275 1.643.561 3.32.84 5.031.495 3.465 1.466 6.844 2.213 10.405.882 3.47 1.773 6.992 2.665 10.513.793 3.465 2.025 7.131 2.449 10.371.271 1.64.537 3.269.803 4.881l.388 2.378.023 2.385c.01 3.146.243 6.146-.299 8.981-.153 1.408-.321 2.78-.485 4.11z"/></g></svg>