<svg xmlns="http://www.w3.org/2000/svg" viewBox="0 0 456.51 456.51"><path fill="#c6aa28" d="M359.21 420.989H97.299C43.648 420.989 0 377.34 0 323.688c0-53.653 43.648-97.303 97.299-97.303 5.522 0 10 4.477 10 10s-4.478 10-10 10C54.676 246.385 20 281.062 20 323.686c0 42.625 34.676 77.303 77.299 77.303H359.21c42.623 0 77.3-34.677 77.3-77.301 0-42.625-34.677-77.303-77.3-77.303-5.522 0-10-4.477-10-10s4.478-10 10-10c53.651 0 97.3 43.649 97.3 97.301 0 53.653-43.649 97.303-97.3 97.303zm-19.955-67.802h-98c-16.267 0-29.5-13.234-29.5-29.5s13.233-29.5 29.5-29.5c5.522 0 10 4.477 10 10s-4.478 10-10 10c-5.238 0-9.5 4.262-9.5 9.5s4.262 9.5 9.5 9.5h98c5.238 0 9.5-4.262 9.5-9.5s-4.262-9.5-9.5-9.5c-5.522 0-10-4.477-10-10s4.478-10 10-10c16.267 0 29.5 13.234 29.5 29.5s-13.234 29.5-29.5 29.5zm-213.628-9.2c-9.891 0-19.852-3.999-27.086-10.97-4.01-3.866-9.694-6.038-14.837-5.666-3.706.268-6.638 1.759-8.712 4.435-3.386 4.365-9.669 5.157-14.03 1.774-4.364-3.385-5.159-9.667-1.774-14.031 5.542-7.146 13.738-11.452 23.078-12.126 10.793-.774 22.065 3.416 30.156 11.215 3.789 3.651 9.286 5.697 14.369 5.328 2.621-.189 6.284-1.109 8.854-4.419 3.388-4.364 9.67-5.155 14.031-1.769 4.363 3.386 5.155 9.667 1.77 14.031-5.53 7.126-13.775 11.426-23.217 12.106-.866.062-1.734.092-2.602.092zm180.981-29.154h-32.707c-5.522 0-10-4.477-10-10s4.478-10 10-10h6.354V174.395c0-5.523 4.478-10 10-10s10 4.477 10 10v120.439h6.354c5.522 0 10 4.477 10 10s-4.478 9.999-10.001 9.999zm-124.471-35.71c-.181 0-.361-.005-.543-.015-5.515-.295-9.746-5.005-9.451-10.52l.428-7.995c.295-5.516 5.041-9.749 10.52-9.452 5.515.295 9.747 5.005 9.451 10.52l-.428 7.995a10.002 10.002 0 0 1-9.977 9.467zm5.026-44.597c-.181 0-.361-.004-.543-.014-5.516-.295-9.747-5.005-9.451-10.521l.751-14.032c.295-5.515 5.031-9.741 10.52-9.451 5.516.295 9.747 5.005 9.451 10.521l-.751 14.032c-.286 5.332-4.7 9.465-9.977 9.465zm52.092-.839c-5.522 0-10-4.477-10-10v-11.75c0-5.523 4.478-10 10-10s10 4.477 10 10v11.75c0 5.523-4.478 10-10 10zm161.149-20.436c-4.811 0-9.052-3.48-9.856-8.381l-1.027-6.259c-.895-5.45 2.799-10.593 8.248-11.488a9.993 9.993 0 0 1 11.488 8.248l1.027 6.258c.895 5.45-2.799 10.593-8.248 11.488a9.979 9.979 0 0 1-1.632.134zm-59.149-15.064c-5.522 0-10-4.477-10-10v-48.5c0-8.547-6.953-15.5-15.5-15.5s-15.5 6.953-15.5 15.5c0 5.523-4.478 10-10 10s-10-4.477-10-10c0-8.547-6.953-15.5-15.5-15.5s-15.5 6.953-15.5 15.5v37.5c0 5.523-4.478 10-10 10s-10-4.477-10-10v-37.5c0-19.575 15.925-35.5 35.5-35.5 2.796 0 5.516.325 8.127.938-6.966-9.061-17.91-14.91-30.196-14.91-20.991 0-38.068 17.078-38.068 38.069 0 5.523-4.478 10-10 10s-10-4.477-10-10c0-32.02 26.05-58.069 58.068-58.069 19.809 0 37.335 9.972 47.819 25.157 10.484-15.185 28.011-25.157 47.819-25.157 32.019 0 58.068 26.049 58.068 58.069 0 5.523-4.478 10-10 10s-10-4.477-10-10c0-20.991-17.077-38.069-38.068-38.069-12.225 0-23.12 5.791-30.091 14.773a35.519 35.519 0 0 1 7.521-.802c19.575 0 35.5 15.925 35.5 35.5v48.5c.001 5.524-4.477 10.001-9.999 10.001zm-150.776-10.342c-.181 0-.361-.005-.543-.015-5.516-.295-9.747-5.005-9.451-10.52l.751-14.032c.295-5.515 5.021-9.749 10.52-9.451 5.516.295 9.747 5.005 9.451 10.521l-.751 14.031c-.286 5.333-4.7 9.466-9.977 9.466zm202.121-9.277c-4.811 0-9.052-3.48-9.856-8.382l-1.803-10.985c-.895-5.45 2.799-10.593 8.249-11.488a9.994 9.994 0 0 1 11.487 8.249l1.803 10.985c.895 5.45-2.799 10.593-8.249 11.488-.548.089-1.093.133-1.631.133zM290.755 67.312c-5.522 0-10-4.477-10-10V45.521c0-5.523 4.478-10 10-10s10 4.477 10 10v11.792c0 5.522-4.478 9.999-10 9.999z"/></svg>