<svg xmlns="http://www.w3.org/2000/svg" width="979.301" height="979.301" viewBox="0 0 979.301 979.301"><g fill="#c6aa28"><path d="M76.95 127.3c-9.8 9.8-9.8 25.6 0 35.4l625.7 625.7c4.9 4.9 11.299 7.299 17.699 7.299 2.201 0 4.4-.299 6.5-.898l54.6 54.6h35.4L744.551 777.1c2.199-8.299.1-17.6-6.5-24.1L112.25 127.3c-9.7-9.7-25.6-9.7-35.3 0zM255.35 37.2c-6.2-.7-12.4-1.5-18.6-1.8-21.7-1-42.2 7-57.8 22-6.3 6.1-11 12.7-14.5 18.9-3.5 6.3-5.8 12.3-7.3 17.7s-2.3 10.2-2.6 14.2c-.2 2-.3 3.7-.3 5.3 0 1.5 0 2.9.1 3.9.1 2.1.3 3.3.3 3.3s.8-.8 2.3-2.2c.8-.7 19.7-22.3 43.3-30.6 9.5-3 19.5-3.8 29.4-3.4 16.4.5 32.8 5.1 49.2 3.9 15.5-1.1 30.7-6.4 43.399-15.4 13.4-9.5 23.7-23.1 29.801-38.3 3.899-9.8 6.399-20.8 6-31.4-.101-2.1-.2-3.3-.2-3.3.1.3-2.9 2.6-3.2 2.9-2.1 1.9-4.4 3.5-6.5 5.3-11.3 9.1-22.6 19-36.2 24.6-10 4.1-20.9 6.1-31.7 6.2-8.2.2-16.6-.8-24.9-1.8zM787.85 948.801h122.701c15.199 0 27.5-12.301 27.5-27.5V902c0-15.199-12.301-27.5-27.5-27.5H68.75c-15.2 0-27.5 12.301-27.5 27.5v19.301c0 15.199 12.3 27.5 27.5 27.5h122.7c0 16.898 13.7 30.5 30.5 30.5 16.9 0 30.5-13.701 30.5-30.5h474.3c0 16.898 13.699 30.5 30.5 30.5 16.9 0 30.6-13.602 30.6-30.5z"/></g></svg>